<svg width="188" height="105" viewBox="0 0 188 105" fill="none" xmlns="http://www.w3.org/2000/svg">
<path fill-rule="evenodd" clip-rule="evenodd" d="M142.295 45.099C143.738 45.099 144.908 46.2689 144.908 47.7121L144.908 52.9384C144.908 54.3816 143.738 55.5516 142.295 55.5516C140.852 55.5516 139.682 54.3816 139.682 52.9384L139.682 47.7121C139.682 46.2689 140.852 45.099 142.295 45.099Z" fill="#00D5E2"/>
<path fill-rule="evenodd" clip-rule="evenodd" d="M169.658 41.1793C171.101 41.1793 172.271 42.3492 172.271 43.7924L172.271 56.8581C172.271 58.3013 171.101 59.4713 169.658 59.4713C168.215 59.4713 167.045 58.3013 167.045 56.8581L167.045 43.7924C167.045 42.3492 168.215 41.1793 169.658 41.1793Z" fill="#00D5E2"/>
<path fill-rule="evenodd" clip-rule="evenodd" d="M160.537 32.5965C161.98 32.5965 163.15 33.7665 163.15 35.2097L163.15 64.6753C163.15 66.1185 161.98 67.2885 160.537 67.2885C159.094 67.2885 157.924 66.1185 157.924 64.6753L157.924 35.2097C157.924 33.7665 159.094 32.5965 160.537 32.5965Z" fill="#00D5E2"/>
<path fill-rule="evenodd" clip-rule="evenodd" d="M151.416 37.3272C152.859 37.3272 154.029 38.4972 154.029 39.9404L154.029 59.9446C154.029 61.3878 152.859 62.5577 151.416 62.5577C149.973 62.5577 148.803 61.3878 148.803 59.9446L148.803 39.9404C148.803 38.4972 149.973 37.3272 151.416 37.3272Z" fill="#00D5E2"/>
<path fill-rule="evenodd" clip-rule="evenodd" d="M133.149 39.2194C134.592 39.2194 135.762 40.3893 135.762 41.8325L135.762 58.8179C135.762 60.2612 134.592 61.4311 133.149 61.4311C131.706 61.4311 130.536 60.2611 130.536 58.8179L130.536 41.8325C130.536 40.3893 131.706 39.2194 133.149 39.2194Z" fill="#003BE5"/>
<path fill-rule="evenodd" clip-rule="evenodd" d="M178.779 39.2194C180.222 39.2194 181.392 40.3893 181.392 41.8325L181.392 58.8179C181.392 60.2612 180.222 61.4311 178.779 61.4311C177.335 61.4311 176.165 60.2611 176.165 58.8179L176.165 41.8325C176.165 40.3893 177.335 39.2194 178.779 39.2194Z" fill="#003BE5"/>
<path fill-rule="evenodd" clip-rule="evenodd" d="M155.951 5.22629C141.127 5.22629 129.129 17.1868 129.129 31.9161V47.2628H132.734C134.178 47.2628 135.348 48.4327 135.348 49.8759C135.348 51.3191 134.178 52.4891 132.734 52.4891H128.174C125.815 52.4891 123.903 50.5766 123.903 48.2176V31.9161C123.903 14.2782 138.262 0 155.951 0C173.64 0 188 14.2782 188 31.9161V48.2176C188 50.5766 186.088 52.4891 183.729 52.4891H179.168C177.725 52.4891 176.555 51.3191 176.555 49.8759C176.555 48.4327 177.725 47.2628 179.168 47.2628H182.774V31.9161C182.774 17.1868 170.776 5.22629 155.951 5.22629Z" fill="#003BE5"/>
<path d="M59.8613 104.785C59.2827 104.785 58.7179 104.729 58.1668 104.619C57.6158 104.523 57.113 104.337 56.6584 104.061C56.2175 103.786 55.8662 103.4 55.6045 102.904C55.3428 102.408 55.2119 101.775 55.2119 101.003C55.2119 100.535 55.267 100.004 55.3772 99.4119C55.4874 98.8196 55.6252 98.1445 55.7905 97.3868L58.3115 85.6083H52.9595L53.6207 82.5087H57.2163C57.6571 82.5087 58.0015 82.4811 58.2495 82.426C58.4975 82.3709 58.6903 82.2676 58.8281 82.1161C58.9659 81.9507 59.083 81.7028 59.1794 81.3721C59.2758 81.0415 59.3791 80.6076 59.4894 80.0703L60.5019 75.2349H64.0355L62.5063 82.5087H69.3668L68.7056 85.6083H61.8451L59.572 96.2503C59.3929 97.132 59.2414 97.8759 59.1174 98.482C59.0072 99.0882 58.9521 99.5841 58.9521 99.9699C58.9521 100.521 59.0692 100.948 59.3034 101.251C59.5513 101.54 59.9715 101.685 60.5639 101.685C60.9634 101.685 61.3836 101.651 61.8244 101.582C62.2652 101.513 62.5821 101.444 62.7749 101.375L62.1344 104.433C61.8726 104.516 61.5558 104.592 61.1838 104.661C60.8256 104.743 60.3848 104.785 59.8613 104.785Z" fill="#003BE5"/>
<path d="M77.4445 104.847C75.7914 104.847 74.4758 104.55 73.4977 103.958C72.5196 103.352 71.817 102.58 71.3899 101.644C70.9629 100.693 70.7494 99.7012 70.7494 98.668C70.7494 97.8828 70.8182 97.0769 70.956 96.2503C71.1075 95.41 71.3348 94.2803 71.6379 92.8614L73.849 82.5087H77.3825L75.2748 92.4068C74.9855 93.7431 74.7651 94.8383 74.6136 95.6924C74.462 96.5327 74.3862 97.2835 74.3862 97.9448C74.3862 99.0055 74.7169 99.8803 75.3781 100.569C76.0394 101.258 77.107 101.602 78.5811 101.602C79.8485 101.602 81.0401 101.223 82.156 100.466C83.2856 99.6943 84.243 98.7369 85.0283 97.5935C85.8135 96.4363 86.3232 95.286 86.5574 94.1426L88.6445 94.9898C88.3828 96.2021 87.9144 97.3937 87.2393 98.5647C86.5781 99.7219 85.7446 100.776 84.739 101.726C83.7471 102.677 82.6312 103.435 81.3914 103.999C80.1515 104.564 78.8359 104.847 77.4445 104.847ZM84.3464 104.454L89.0164 82.5087H92.5294L87.8593 104.454H84.3464Z" fill="#003BE5"/>
<path d="M109.543 104.454L111.837 93.9359C112.099 92.7512 112.292 91.8006 112.416 91.0843C112.553 90.3542 112.622 89.7067 112.622 89.1419C112.622 88.026 112.23 87.1443 111.444 86.4969C110.673 85.8494 109.502 85.5256 107.932 85.5256C106.761 85.5256 105.61 85.8287 104.481 86.4349C103.351 87.0272 102.38 87.8331 101.567 88.8526C100.754 89.8582 100.21 90.9879 99.9345 92.2415L97.9095 91.4769C98.185 90.182 98.6947 88.9765 99.4386 87.8607C100.196 86.731 101.106 85.7461 102.166 84.9057C103.241 84.0516 104.398 83.3835 105.638 82.9013C106.878 82.4191 108.124 82.178 109.378 82.178C111.513 82.178 113.208 82.6878 114.461 83.7072C115.715 84.7128 116.342 86.1318 116.342 87.964C116.342 88.7217 116.252 89.5965 116.073 90.5883C115.894 91.5664 115.639 92.7925 115.309 94.2666L113.056 104.454H109.543ZM93.8386 104.454L98.5087 82.5087H102.022L97.3515 104.454H93.8386Z" fill="#003BE5"/>
<path d="M122.326 94.8865L122.988 91.7455H139.953L139.333 92.7787C139.416 92.4894 139.478 92.1933 139.519 91.8902C139.574 91.5871 139.602 91.1601 139.602 90.609C139.602 89.6171 139.388 88.7286 138.961 87.9433C138.534 87.1443 137.88 86.5175 136.998 86.0629C136.13 85.5945 135.014 85.3603 133.65 85.3603C132.163 85.3603 130.819 85.6221 129.621 86.1456C128.422 86.6553 127.389 87.3785 126.521 88.3153C125.667 89.2521 125.006 90.3473 124.537 91.6009C124.083 92.8545 123.856 94.2183 123.856 95.6924C123.856 96.9322 124.083 97.9999 124.537 98.8953C125.006 99.7908 125.708 100.48 126.645 100.962C127.596 101.43 128.787 101.664 130.22 101.664C131.432 101.664 132.486 101.547 133.382 101.313C134.291 101.065 135.055 100.741 135.675 100.342C136.309 99.9285 136.812 99.4808 137.184 98.9986C137.57 98.5165 137.838 98.0343 137.99 97.5522H141.544C141.351 98.4338 140.938 99.3086 140.304 100.177C139.67 101.044 138.844 101.837 137.824 102.553C136.805 103.255 135.613 103.82 134.25 104.247C132.886 104.674 131.37 104.888 129.703 104.888C127.761 104.888 126.101 104.509 124.723 103.751C123.346 102.98 122.292 101.912 121.562 100.548C120.832 99.1708 120.467 97.5728 120.467 95.7544C120.467 93.8257 120.811 92.0417 121.5 90.4024C122.202 88.7492 123.174 87.3096 124.413 86.0836C125.653 84.8437 127.093 83.8863 128.732 83.2113C130.372 82.5224 132.128 82.178 134.002 82.178C135.916 82.178 137.542 82.5638 138.878 83.3352C140.215 84.1067 141.234 85.1537 141.937 86.4762C142.639 87.7987 142.991 89.2934 142.991 90.9603C142.991 91.5527 142.929 92.2415 142.805 93.0267C142.681 93.7982 142.543 94.4181 142.391 94.8865H122.326Z" fill="#003BE5"/>
<path d="M154.478 104.867C153.293 104.867 152.198 104.743 151.193 104.495C150.187 104.247 149.312 103.896 148.568 103.441C147.824 102.973 147.246 102.415 146.832 101.768C146.419 101.12 146.212 100.397 146.212 99.5979C146.212 99.3224 146.24 99.0055 146.295 98.6474C146.364 98.2754 146.426 97.993 146.481 97.8001H150.015C149.973 97.9241 149.932 98.1032 149.891 98.3374C149.863 98.5716 149.849 98.7576 149.849 98.8953C149.849 99.8045 150.297 100.5 151.193 100.982C152.088 101.451 153.349 101.685 154.974 101.685C156.007 101.685 157.013 101.582 157.991 101.375C158.983 101.155 159.803 100.79 160.45 100.28C161.098 99.7701 161.421 99.0606 161.421 98.1514C161.421 97.2009 161.001 96.4983 160.161 96.0437C159.334 95.5891 157.97 95.2102 156.069 94.9071C154.719 94.6867 153.486 94.363 152.37 93.9359C151.268 93.4951 150.387 92.8958 149.725 92.1382C149.078 91.3667 148.754 90.3886 148.754 89.2038C148.754 88.0053 149.037 86.9652 149.601 86.0836C150.166 85.2019 150.924 84.4718 151.874 83.8932C152.839 83.3146 153.913 82.8875 155.098 82.612C156.297 82.3227 157.523 82.178 158.776 82.178C160.209 82.178 161.525 82.3985 162.723 82.8393C163.922 83.2801 164.879 83.9069 165.595 84.7197C166.312 85.5187 166.67 86.4624 166.67 87.5507C166.67 87.9365 166.649 88.2464 166.608 88.4806C166.58 88.7148 166.532 88.9421 166.463 89.1625H162.95C163.006 88.9697 163.04 88.8112 163.054 88.6872C163.068 88.5495 163.074 88.3911 163.074 88.212C163.074 87.5507 162.854 87.0135 162.413 86.6002C161.986 86.1731 161.421 85.8563 160.719 85.6496C160.016 85.443 159.245 85.3397 158.404 85.3397C157.412 85.3397 156.448 85.4568 155.511 85.6909C154.575 85.9114 153.803 86.2695 153.197 86.7655C152.591 87.2476 152.288 87.8745 152.288 88.6459C152.288 89.624 152.749 90.3404 153.672 90.795C154.595 91.2358 155.89 91.6216 157.557 91.9522C158.577 92.1588 159.534 92.3999 160.429 92.6754C161.325 92.9509 162.11 93.3022 162.785 93.7293C163.46 94.1564 163.984 94.6867 164.356 95.3204C164.741 95.9404 164.934 96.7049 164.934 97.6141C164.934 98.9229 164.638 100.039 164.046 100.962C163.453 101.885 162.654 102.636 161.649 103.214C160.657 103.779 159.541 104.192 158.301 104.454C157.061 104.729 155.787 104.867 154.478 104.867Z" fill="#003BE5"/>
<path d="M9.78183 64.7914C9.03792 64.7914 8.28712 64.7363 7.52944 64.6261C6.78553 64.5159 6.09673 64.3092 5.46303 64.0062C4.82933 63.6893 4.31961 63.2347 3.93388 62.6423C3.54815 62.05 3.35529 61.2647 3.35529 60.2866C3.35529 59.7907 3.4035 59.2396 3.49994 58.6335C3.61014 58.0273 3.7479 57.3454 3.91322 56.5877L5.89697 47.3509H0.813599L1.86747 42.3915H3.37595C4.18874 42.3915 4.84999 42.3502 5.35971 42.2675C5.86942 42.1711 6.26893 41.9782 6.55823 41.6889C6.8613 41.3858 7.10927 40.9243 7.30213 40.3044C7.50878 39.6845 7.71542 38.8441 7.92206 37.7834L8.45933 35.159H14.8859L13.3774 42.3915H19.7419L18.6881 47.3509H12.3235L10.6291 55.2446C10.4775 56.0298 10.3535 56.6566 10.2571 57.125C10.1744 57.5934 10.1331 57.9998 10.1331 58.3442C10.1331 58.8126 10.2364 59.1845 10.4431 59.4601C10.6635 59.7218 11.0561 59.8527 11.6209 59.8527C12.0755 59.8527 12.5302 59.8113 12.9848 59.7287C13.4394 59.646 13.7769 59.5634 13.9973 59.4807L12.9641 64.2955C12.6473 64.4194 12.2064 64.5297 11.6416 64.6261C11.0906 64.7363 10.4706 64.7914 9.78183 64.7914Z" fill="#00D5E2"/>
<path d="M18.9151 64.3368L23.5645 42.3915H29.991L28.3792 49.9546L27.16 49.128C27.532 48.0948 28.0142 47.1442 28.6065 46.2763C29.1989 45.4084 29.8877 44.6577 30.6729 44.024C31.472 43.3765 32.3467 42.8736 33.2973 42.5155C34.2616 42.1573 35.3017 41.9782 36.4176 41.9782C37.313 41.9782 37.988 42.0471 38.4426 42.1848C38.911 42.3088 39.2003 42.4053 39.3105 42.4741L37.0168 48.2188C36.9204 48.1499 36.6724 48.0397 36.2729 47.8881C35.8734 47.7366 35.3361 47.6608 34.6611 47.6608C33.559 47.6608 32.5947 47.8468 31.7681 48.2188C30.9553 48.5907 30.2597 49.0798 29.6811 49.6859C29.1162 50.2921 28.6547 50.9671 28.2966 51.711C27.9384 52.4549 27.6835 53.2057 27.532 53.9634L25.3209 64.3368H18.9151Z" fill="#00D5E2"/>
<path d="M37.8831 73.8216C37.1805 73.8216 36.5331 73.801 35.9407 73.7596C35.3483 73.7183 34.997 73.6701 34.8868 73.615L35.9613 68.7176C36.1267 68.814 36.4228 68.8829 36.8499 68.9242C37.2632 68.9793 37.7247 69.0069 38.2344 69.0069C38.9094 69.0069 39.5362 68.8622 40.1148 68.5729C40.7072 68.2974 41.2376 67.9117 41.706 67.4157C42.1744 66.9336 42.5876 66.3756 42.9458 65.7419L43.5451 64.6261L40.6934 42.3915H47.2026L48.2358 60.3899H47.4299L55.8196 42.3915H62.5974L50.1783 65.432C49.2415 67.1678 48.2496 68.6625 47.2026 69.9161C46.1694 71.1835 44.9158 72.1478 43.4418 72.8091C41.9677 73.4841 40.1148 73.8216 37.8831 73.8216Z" fill="#00D5E2"/>
<path d="M74.24 64.8121C72.7522 64.8121 71.4159 64.4608 70.2312 63.7582C69.0464 63.0556 68.1097 62.0913 67.4209 60.8652C66.7458 59.6391 66.4083 58.234 66.4083 56.6497C66.4083 56.0574 66.4359 55.5476 66.491 55.1206C66.5461 54.6935 66.6218 54.3285 66.7183 54.0254L69.4046 53.9634C69.3633 54.1563 69.3288 54.3836 69.3013 54.6453C69.2737 54.8933 69.26 55.1137 69.26 55.3066C69.26 56.1056 69.4459 56.8082 69.8179 57.4143C70.2036 58.0067 70.7065 58.4682 71.3264 58.7988C71.9601 59.1157 72.6627 59.2741 73.4341 59.2741C74.5087 59.2741 75.4523 59.0743 76.2651 58.6748C77.0917 58.2753 77.7805 57.7243 78.3315 57.0217C78.8963 56.3191 79.3165 55.5063 79.592 54.5833C79.8813 53.6603 80.026 52.6753 80.026 51.6284C80.026 50.1543 79.6609 49.0729 78.9308 48.3841C78.2006 47.6815 77.2088 47.3302 75.9551 47.3302C75.101 47.3302 74.2331 47.5369 73.3515 47.9501C72.4836 48.3496 71.719 48.9213 71.0577 49.6653C70.4103 50.4092 69.9763 51.2977 69.7559 52.3309L66.9662 52.1656C67.3795 50.1819 68.1579 48.4323 69.3013 46.9169C70.4585 45.3878 71.8292 44.1893 73.4135 43.3214C74.9977 42.4397 76.6577 41.9989 78.3935 41.9989C80.8181 41.9989 82.795 42.791 84.3241 44.3752C85.867 45.9595 86.6385 48.205 86.6385 51.1117C86.6385 53.0404 86.3423 54.8382 85.7499 56.5051C85.1576 58.1582 84.3172 59.6116 83.2289 60.8652C82.1406 62.1051 80.8319 63.0763 79.3027 63.7789C77.7874 64.4677 76.0998 64.8121 74.24 64.8121ZM60.7877 64.3368L67.6688 32.0388H74.0954L67.2142 64.3368H60.7877Z" fill="#00D5E2"/>
<path d="M92.5933 55.2859L93.4612 51.0498H108.009L107.286 52.1243C107.354 51.835 107.41 51.5664 107.451 51.3184C107.492 51.0566 107.513 50.7742 107.513 50.4712C107.513 49.8099 107.361 49.2038 107.058 48.6527C106.755 48.0879 106.273 47.6333 105.612 47.2889C104.964 46.9445 104.11 46.7723 103.049 46.7723C101.851 46.7723 100.783 46.9927 99.8464 47.4335C98.9097 47.8744 98.1175 48.4943 97.4701 49.2933C96.8363 50.0785 96.3542 51.0015 96.0236 52.0623C95.6929 53.1093 95.5276 54.2458 95.5276 55.4719C95.5276 56.4087 95.6861 57.2146 96.0029 57.8896C96.3197 58.5646 96.8295 59.0812 97.532 59.4394C98.2484 59.7976 99.1783 59.9767 100.322 59.9767C101.203 59.9767 101.975 59.9009 102.636 59.7493C103.297 59.584 103.855 59.3774 104.31 59.1294C104.764 58.8815 105.123 58.6059 105.384 58.3029C105.66 57.9998 105.846 57.7036 105.942 57.4143H112.286C112.038 58.3373 111.577 59.2465 110.902 60.142C110.227 61.0236 109.352 61.8227 108.277 62.539C107.203 63.2416 105.942 63.7995 104.496 64.2128C103.049 64.6261 101.417 64.8327 99.5984 64.8327C97.4356 64.8327 95.5896 64.4332 94.0605 63.6342C92.5451 62.8352 91.3879 61.7331 90.5889 60.3279C89.7899 58.909 89.3904 57.2765 89.3904 55.4305C89.3904 53.4881 89.7486 51.6972 90.4649 50.0579C91.195 48.4185 92.2007 46.9927 93.4819 45.7804C94.7768 44.5681 96.2784 43.6313 97.9866 42.9701C99.6949 42.3088 101.534 41.9782 103.504 41.9782C105.625 41.9782 107.444 42.3639 108.959 43.1354C110.475 43.8931 111.632 44.9538 112.431 46.3177C113.244 47.6815 113.65 49.2795 113.65 51.1117C113.65 51.7454 113.588 52.4618 113.464 53.2608C113.34 54.0598 113.182 54.7349 112.989 55.2859H92.5933Z" fill="#00D5E2"/>
</svg>
